<svg width="20" height="20" viewBox="0 0 20 20" fill="none" xmlns="http://www.w3.org/2000/svg">
<path d="M18.4892 8.75623H4.52667L10.6267 2.65623C11.1142 2.16873 11.1142 1.36873 10.6267 0.881232C10.3931 0.647166 10.0761 0.515625 9.74542 0.515625C9.41477 0.515625 9.09771 0.647166 8.86417 0.881232L0.626672 9.11873C0.139172 9.60623 0.139172 10.3937 0.626672 10.8812L8.86417 19.1187C9.35167 19.6062 10.1392 19.6062 10.6267 19.1187C11.1142 18.6312 11.1142 17.8437 10.6267 17.3562L4.52667 11.2562H18.4892C19.1767 11.2562 19.7392 10.6937 19.7392 10.0062C19.7392 9.31873 19.1767 8.75623 18.4892 8.75623Z" fill="#FAB2D7"/>
</svg>
