<svg width="25" height="20" viewBox="0 0 25 20" fill="none" xmlns="http://www.w3.org/2000/svg">
<path fill-rule="evenodd" clip-rule="evenodd" d="M0 0.46582H35.6254V1.90814H0V0.46582ZM0 3.35046H35.6254V4.79278H0V3.35046ZM0 6.23511H35.6254V7.67743H0V6.23511ZM0 9.11975H35.6254V10.5621H0V9.11975ZM0 12.0044H35.6254V13.4467H0V12.0044ZM0 14.889H35.6254V16.3314H0V14.889ZM0 17.7737H35.6254V19.216H0V17.7737Z" fill="#BD3D44"/>
<path fill-rule="evenodd" clip-rule="evenodd" d="M0 1.9082H35.6254V3.35052H0V1.9082ZM0 4.79285H35.6254V6.23517H0V4.79285ZM0 7.67749H35.6254V9.11981H0V7.67749ZM0 10.5621H35.6254V12.0045H0V10.5621ZM0 13.4468H35.6254V14.8891H0V13.4468ZM0 16.3314H35.6254V17.7737H0V16.3314Z" fill="white"/>
<path fill-rule="evenodd" clip-rule="evenodd" d="M0 0.46582H14.25V10.5619H0V0.46582Z" fill="#192F5D"/>
<path fill-rule="evenodd" clip-rule="evenodd" d="M1.18755 0.897949L1.31719 1.29697H1.73679L1.39731 1.54362L1.52699 1.94264L1.18751 1.69603L0.848108 1.94264L0.977747 1.54362L0.638306 1.29697H1.05787L1.18755 0.897949ZM3.56254 0.897949L3.69221 1.29697H4.11182L3.77234 1.54362L3.90202 1.94264L3.56254 1.69603L3.22313 1.94264L3.35277 1.54362L3.01333 1.29697H3.4329L3.56254 0.897949ZM5.93764 0.897949L6.06727 1.29697H6.48688L6.1474 1.54362L6.27708 1.94264L5.93764 1.69603L5.59819 1.94264L5.72783 1.54362L5.38839 1.29697H5.808L5.93764 0.897949ZM8.31259 0.897949L8.44223 1.29697H8.86179L8.52235 1.54362L8.65199 1.94264L8.31259 1.69603L7.97311 1.94264L8.10279 1.54362L7.76331 1.29697H8.18291L8.31259 0.897949ZM10.6876 0.897949L10.8173 1.29697H11.2369L10.8974 1.54362L11.0271 1.94264L10.6876 1.69603L10.3482 1.94264L10.4778 1.54362L10.1384 1.29697H10.558L10.6876 0.897949ZM13.0627 0.897949L13.1924 1.29697H13.612L13.2725 1.54362L13.4022 1.94264L13.0627 1.69603L12.7232 1.94264L12.8529 1.54362L12.5135 1.29697H12.9331L13.0627 0.897949ZM2.3751 1.90759L2.50474 2.30662H2.92434L2.58486 2.55322L2.71458 2.95228L2.3751 2.70568L2.03566 2.95228L2.1653 2.55322L1.82585 2.30662H2.24546L2.3751 1.90759ZM4.75005 1.90759L4.87969 2.30662H5.29926L4.95982 2.55322L5.08945 2.95228L4.75005 2.70568L4.41057 2.95228L4.54025 2.55322L4.20077 2.30662H4.62037L4.75005 1.90759ZM7.12511 1.90759L7.25475 2.30662H7.67436L7.33488 2.55322L7.46455 2.95228L7.12508 2.70568L6.78567 2.95228L6.91531 2.55322L6.57587 2.30662H6.99544L7.12511 1.90759ZM9.50017 1.90759L9.62981 2.30662H10.0494L9.70994 2.55322L9.83961 2.95228L9.50017 2.70568L9.1607 2.95228L9.29044 2.55322L8.95097 2.30662H9.37057L9.50017 1.90759ZM11.8751 1.90759L12.0048 2.30662H12.4243L12.0849 2.55322L12.2145 2.95228L11.8751 2.70568L11.5356 2.95228L11.6653 2.55322L11.3258 2.30662H11.7455L11.8751 1.90759ZM1.18755 2.9172L1.31719 3.31622H1.73679L1.39731 3.56287L1.52699 3.96189L1.18751 3.71528L0.848108 3.96189L0.977747 3.56287L0.638306 3.31622H1.05787L1.18755 2.9172ZM3.56254 2.9172L3.69221 3.31622H4.11182L3.77234 3.56287L3.90202 3.96189L3.56254 3.71528L3.22313 3.96189L3.35277 3.56287L3.01333 3.31622H3.4329L3.56254 2.9172ZM5.93764 2.9172L6.06727 3.31622H6.48688L6.1474 3.56287L6.27708 3.96189L5.93764 3.71528L5.59819 3.96189L5.72783 3.56287L5.38839 3.31622H5.808L5.93764 2.9172ZM8.31259 2.9172L8.44223 3.31622H8.86179L8.52235 3.56287L8.65199 3.96189L8.31259 3.71528L7.97311 3.96189L8.10279 3.56287L7.76331 3.31622H8.18291L8.31259 2.9172ZM10.6876 2.9172L10.8173 3.31622H11.2369L10.8974 3.56287L11.0271 3.96189L10.6876 3.71528L10.3482 3.96189L10.4778 3.56287L10.1384 3.31622H10.558L10.6876 2.9172ZM13.0627 2.9172L13.1924 3.31622H13.612L13.2725 3.56287L13.4022 3.96189L13.0627 3.71528L12.7232 3.96189L12.8529 3.56287L12.5135 3.31622H12.9331L13.0627 2.9172ZM2.3751 3.92681L2.50474 4.32587H2.92434L2.58486 4.57247L2.71458 4.97153L2.3751 4.72493L2.03566 4.97153L2.1653 4.57247L1.82585 4.32587H2.24546L2.3751 3.92681ZM4.75005 3.92681L4.87969 4.32587H5.29926L4.95982 4.57247L5.08945 4.97153L4.75005 4.72493L4.41057 4.97153L4.54025 4.57247L4.20077 4.32587H4.62037L4.75005 3.92681ZM7.12511 3.92681L7.25475 4.32587H7.67436L7.33488 4.57247L7.46455 4.97153L7.12508 4.72493L6.78567 4.97153L6.91531 4.57247L6.57587 4.32587H6.99544L7.12511 3.92681ZM9.50017 3.92681L9.62981 4.32587H10.0494L9.70994 4.57247L9.83961 4.97153L9.50017 4.72493L9.1607 4.97153L9.29041 4.57247L8.95093 4.32587H9.37053L9.50017 3.92681ZM11.8751 3.92681L12.0048 4.32587H12.4243L12.0849 4.57247L12.2145 4.97153L11.8751 4.72493L11.5356 4.97153L11.6653 4.57247L11.3258 4.32587H11.7455L11.8751 3.92681ZM1.18755 4.93645L1.31719 5.33547H1.73679L1.39731 5.58212L1.52699 5.98114L1.18751 5.73453L0.848108 5.98114L0.977747 5.58212L0.638306 5.33547H1.05787L1.18755 4.93645ZM3.56254 4.93645L3.69221 5.33547H4.11182L3.77234 5.58212L3.90202 5.98114L3.56254 5.73453L3.22313 5.98114L3.35277 5.58212L3.01333 5.33547H3.4329L3.56254 4.93645ZM5.93764 4.93645L6.06727 5.33547H6.48688L6.1474 5.58212L6.27708 5.98114L5.93764 5.73453L5.59819 5.98114L5.72783 5.58212L5.38839 5.33547H5.808L5.93764 4.93645ZM8.31259 4.93645L8.44223 5.33547H8.86179L8.52235 5.58212L8.65199 5.98114L8.31259 5.73453L7.97311 5.98114L8.10279 5.58212L7.76331 5.33547H8.18291L8.31259 4.93645ZM10.6876 4.93645L10.8173 5.33547H11.2369L10.8974 5.58212L11.0271 5.98114L10.6876 5.73453L10.3482 5.98114L10.4778 5.58212L10.1384 5.33547H10.558L10.6876 4.93645ZM13.0627 4.93645L13.1924 5.33547H13.612L13.2725 5.58212L13.4022 5.98114L13.0627 5.73453L12.7232 5.98114L12.8529 5.58212L12.5135 5.33547H12.9331L13.0627 4.93645ZM2.3751 5.94606L2.50474 6.34512H2.92434L2.58486 6.59172L2.71458 6.99078L2.3751 6.74418L2.03566 6.99078L2.1653 6.59172L1.82585 6.34512H2.24546L2.3751 5.94606ZM4.75005 5.94606L4.87969 6.34512H5.29926L4.95982 6.59172L5.08945 6.99078L4.75005 6.74418L4.41057 6.99078L4.54025 6.59172L4.20077 6.34512H4.62037L4.75005 5.94606ZM7.12511 5.94606L7.25475 6.34512H7.67436L7.33488 6.59172L7.46455 6.99078L7.12508 6.74418L6.78567 6.99078L6.91531 6.59172L6.57587 6.34512H6.99544L7.12511 5.94606ZM9.50017 5.94606L9.62981 6.34512H10.0494L9.70994 6.59172L9.83961 6.99078L9.50017 6.74418L9.1607 6.99078L9.29041 6.59172L8.95093 6.34512H9.37053L9.50017 5.94606ZM11.8751 5.94606L12.0048 6.34512H12.4243L12.0849 6.59172L12.2145 6.99078L11.8751 6.74418L11.5356 6.99078L11.6653 6.59172L11.3258 6.34512H11.7455L11.8751 5.94606Z" fill="white"/>
<path fill-rule="evenodd" clip-rule="evenodd" d="M1.18755 6.95581L1.31719 7.35483H1.73679L1.39731 7.60148L1.52699 8.0005L1.18751 7.75389L0.848108 8.0005L0.977747 7.60148L0.638306 7.35483H1.05787L1.18755 6.95581ZM3.56254 6.95581L3.69221 7.35483H4.11182L3.77234 7.60148L3.90202 8.0005L3.56254 7.75389L3.22313 8.0005L3.35277 7.60148L3.01333 7.35483H3.4329L3.56254 6.95581ZM5.93764 6.95581L6.06727 7.35483H6.48688L6.1474 7.60148L6.27708 8.0005L5.93764 7.75389L5.59819 8.0005L5.72783 7.60148L5.38839 7.35483H5.808L5.93764 6.95581ZM8.31259 6.95581L8.44223 7.35483H8.86179L8.52235 7.60148L8.65199 8.0005L8.31259 7.75389L7.97311 8.0005L8.10279 7.60148L7.76331 7.35483H8.18291L8.31259 6.95581ZM10.6876 6.95581L10.8173 7.35483H11.2369L10.8974 7.60148L11.0271 8.0005L10.6876 7.75389L10.3482 8.0005L10.4778 7.60148L10.1384 7.35483H10.558L10.6876 6.95581ZM13.0627 6.95581L13.1924 7.35483H13.612L13.2725 7.60148L13.4022 8.0005L13.0627 7.75389L12.7232 8.0005L12.8529 7.60148L12.5135 7.35483H12.9331L13.0627 6.95581ZM2.3751 7.96542L2.50474 8.36448H2.92434L2.58486 8.61108L2.71458 9.01014L2.3751 8.76353L2.03566 9.01014L2.1653 8.61108L1.82585 8.36448H2.24546L2.3751 7.96542ZM4.75005 7.96542L4.87969 8.36448H5.29926L4.95982 8.61108L5.08945 9.01014L4.75005 8.76353L4.41057 9.01014L4.54025 8.61108L4.20077 8.36448H4.62037L4.75005 7.96542ZM7.12511 7.96542L7.25475 8.36448H7.67436L7.33488 8.61108L7.46455 9.01014L7.12508 8.76353L6.78567 9.01014L6.91531 8.61108L6.57587 8.36448H6.99544L7.12511 7.96542ZM9.50017 7.96542L9.62981 8.36448H10.0494L9.70994 8.61108L9.83961 9.01014L9.50017 8.76353L9.1607 9.01014L9.29041 8.61108L8.95093 8.36448H9.37053L9.50017 7.96542ZM11.8751 7.96542L12.0048 8.36448H12.4243L12.0849 8.61108L12.2145 9.01014L11.8751 8.76353L11.5356 9.01014L11.6653 8.61108L11.3258 8.36448H11.7455L11.8751 7.96542Z" fill="white"/>
<path fill-rule="evenodd" clip-rule="evenodd" d="M1.18755 8.97485L1.31719 9.37387H1.73679L1.39731 9.62052L1.52699 10.0195L1.18751 9.77293L0.848108 10.0195L0.977747 9.62052L0.638306 9.37387H1.05787L1.18755 8.97485ZM3.56254 8.97485L3.69221 9.37387H4.11182L3.77234 9.62052L3.90202 10.0195L3.56254 9.77293L3.22313 10.0195L3.35277 9.62052L3.01333 9.37387H3.4329L3.56254 8.97485ZM5.93764 8.97485L6.06727 9.37387H6.48688L6.1474 9.62052L6.27708 10.0195L5.93764 9.77293L5.59819 10.0195L5.72783 9.62052L5.38839 9.37387H5.808L5.93764 8.97485ZM8.31259 8.97485L8.44223 9.37387H8.86179L8.52235 9.62052L8.65199 10.0195L8.31259 9.77293L7.97311 10.0195L8.10279 9.62052L7.76331 9.37387H8.18291L8.31259 8.97485ZM10.6876 8.97485L10.8173 9.37387H11.2369L10.8974 9.62052L11.0271 10.0195L10.6876 9.77293L10.3482 10.0195L10.4778 9.62052L10.1384 9.37387H10.558L10.6876 8.97485ZM13.0627 8.97485L13.1924 9.37387H13.612L13.2725 9.62052L13.4022 10.0195L13.0627 9.77293L12.7232 10.0195L12.8529 9.62052L12.5135 9.37387H12.9331L13.0627 8.97485Z" fill="white"/>
</svg>
