<svg width="490" height="339" viewBox="0 0 490 339" fill="none" xmlns="http://www.w3.org/2000/svg">
<g filter="url(#filter0_d)">
<path d="M116.25 149C112.25 153.833 108.083 159 103.75 164.5C99.5833 170 95.5 175.75 91.5 181.75C87.5 187.75 83.6667 193.917 80 200.25C76.3333 206.417 73 212.583 70 218.75H116.25V149ZM145.75 111.75V218.75H165.25V243.5H145.75V285H116.25V243.5H40.25V222C43.5833 214.667 48 206.25 53.5 196.75C59.1667 187.25 65.4167 177.5 72.25 167.5C79.0833 157.5 86.3333 147.667 94 138C101.667 128.333 109.333 119.583 117 111.75H145.75Z" fill="white"/>
<path d="M305.34 198.25C305.34 227.417 300.007 249.833 289.34 265.5C278.673 281 263.923 288.75 245.09 288.75C226.257 288.75 211.507 281 200.84 265.5C190.173 249.833 184.84 227.417 184.84 198.25C184.84 183.75 186.173 170.917 188.84 159.75C191.673 148.417 195.673 138.917 200.84 131.25C206.173 123.583 212.507 117.75 219.84 113.75C227.34 109.75 235.757 107.75 245.09 107.75C263.923 107.75 278.673 115.583 289.34 131.25C300.007 146.75 305.34 169.083 305.34 198.25ZM274.09 198.25C274.09 189.25 273.59 180.833 272.59 173C271.59 165.167 269.923 158.417 267.59 152.75C265.423 146.917 262.507 142.333 258.84 139C255.173 135.667 250.59 134 245.09 134C239.59 134 234.923 135.667 231.09 139C227.423 142.333 224.423 146.917 222.09 152.75C219.923 158.417 218.34 165.167 217.34 173C216.507 180.833 216.09 189.25 216.09 198.25C216.09 207.25 216.507 215.667 217.34 223.5C218.34 231.333 219.923 238.167 222.09 244C224.423 249.667 227.423 254.167 231.09 257.5C234.923 260.833 239.59 262.5 245.09 262.5C250.59 262.5 255.173 260.833 258.84 257.5C262.507 254.167 265.423 249.667 267.59 244C269.923 238.167 271.59 231.333 272.59 223.5C273.59 215.667 274.09 207.25 274.09 198.25Z" fill="white"/>
<path d="M400.43 149C396.43 153.833 392.263 159 387.93 164.5C383.763 170 379.68 175.75 375.68 181.75C371.68 187.75 367.846 193.917 364.18 200.25C360.513 206.417 357.18 212.583 354.18 218.75H400.43V149ZM429.93 111.75V218.75H449.43V243.5H429.93V285H400.43V243.5H324.43V222C327.763 214.667 332.18 206.25 337.68 196.75C343.346 187.25 349.596 177.5 356.43 167.5C363.263 157.5 370.513 147.667 378.18 138C385.846 128.333 393.513 119.583 401.18 111.75H429.93Z" fill="white"/>
<path d="M281.568 53.792C281.568 57.5893 281.013 60.9387 279.904 63.84C278.795 66.7413 277.28 69.1733 275.36 71.136C273.483 73.056 271.285 74.5067 268.768 75.488C266.251 76.4693 263.584 76.96 260.768 76.96C257.952 76.96 255.285 76.4693 252.768 75.488C250.251 74.5067 248.032 73.056 246.112 71.136C244.235 69.1733 242.741 66.7413 241.632 63.84C240.523 60.9387 239.968 57.5893 239.968 53.792C239.968 49.9947 240.523 46.6667 241.632 43.808C242.741 40.9067 244.235 38.496 246.112 36.576C248.032 34.6133 250.251 33.1413 252.768 32.16C255.285 31.1787 257.952 30.688 260.768 30.688C263.584 30.688 266.251 31.1787 268.768 32.16C271.285 33.1413 273.483 34.6133 275.36 36.576C277.28 38.496 278.795 40.9067 279.904 43.808C281.013 46.6667 281.568 49.9947 281.568 53.792ZM276.96 53.792C276.96 50.8053 276.576 48.1387 275.808 45.792C275.04 43.4027 273.952 41.376 272.544 39.712C271.136 38.048 269.429 36.7893 267.424 35.936C265.461 35.04 263.243 34.592 260.768 34.592C258.293 34.592 256.053 35.04 254.048 35.936C252.085 36.7893 250.4 38.048 248.992 39.712C247.584 41.376 246.496 43.4027 245.728 45.792C244.96 48.1387 244.576 50.8053 244.576 53.792C244.576 56.7787 244.96 59.4667 245.728 61.856C246.496 64.2027 247.584 66.208 248.992 67.872C250.4 69.536 252.085 70.816 254.048 71.712C256.053 72.608 258.293 73.056 260.768 73.056C263.243 73.056 265.461 72.608 267.424 71.712C269.429 70.816 271.136 69.536 272.544 67.872C273.952 66.208 275.04 64.2027 275.808 61.856C276.576 59.4667 276.96 56.7787 276.96 53.792Z" fill="#FAB2D7"/>
<path d="M319.291 59.488C319.291 62.0907 318.907 64.4587 318.139 66.592C317.413 68.7253 316.368 70.5387 315.003 72.032C313.68 73.5253 312.101 74.6987 310.267 75.552C308.432 76.3627 306.405 76.768 304.187 76.768C301.968 76.768 299.941 76.3627 298.107 75.552C296.272 74.6987 294.672 73.5253 293.307 72.032C291.984 70.5387 290.939 68.7253 290.171 66.592C289.445 64.4587 289.083 62.0907 289.083 59.488C289.083 56.8853 289.445 54.5173 290.171 52.384C290.939 50.2507 291.984 48.4373 293.307 46.944C294.672 45.408 296.272 44.2347 298.107 43.424C299.941 42.5707 301.968 42.144 304.187 42.144C306.405 42.144 308.432 42.5707 310.267 43.424C312.101 44.2347 313.68 45.408 315.003 46.944C316.368 48.4373 317.413 50.2507 318.139 52.384C318.907 54.5173 319.291 56.8853 319.291 59.488ZM314.875 59.488C314.875 55.3493 313.915 52.064 311.995 49.632C310.075 47.1573 307.472 45.92 304.187 45.92C300.901 45.92 298.299 47.1573 296.379 49.632C294.459 52.064 293.499 55.3493 293.499 59.488C293.499 63.6267 294.459 66.912 296.379 69.344C298.299 71.776 300.901 72.992 304.187 72.992C307.472 72.992 310.075 71.776 311.995 69.344C313.915 66.912 314.875 63.6267 314.875 59.488Z" fill="#FAB2D7"/>
<path d="M332.477 70.048C332.861 70.3467 333.33 70.6667 333.885 71.008C334.482 71.3493 335.165 71.6693 335.933 71.968C336.701 72.2667 337.533 72.5227 338.429 72.736C339.325 72.9067 340.263 72.992 341.245 72.992C343.293 72.992 344.999 72.6507 346.365 71.968C347.773 71.2427 348.903 70.2827 349.757 69.088C350.61 67.8507 351.229 66.4213 351.613 64.8C351.997 63.136 352.189 61.3867 352.189 59.552C352.189 55.2 351.101 51.872 348.925 49.568C346.749 47.2213 343.869 46.048 340.285 46.048C338.237 46.048 336.573 46.1547 335.293 46.368C334.055 46.5387 333.117 46.7307 332.477 46.944V70.048ZM332.477 87.84H328.317V44.064C329.554 43.6373 331.133 43.232 333.053 42.848C334.973 42.464 337.405 42.272 340.349 42.272C342.781 42.272 344.978 42.6773 346.941 43.488C348.946 44.256 350.653 45.3867 352.061 46.88C353.511 48.3733 354.621 50.1867 355.389 52.32C356.199 54.4533 356.605 56.864 356.605 59.552C356.605 62.0693 356.263 64.3947 355.581 66.528C354.941 68.6187 353.981 70.432 352.701 71.968C351.421 73.4613 349.842 74.6347 347.965 75.488C346.13 76.3413 344.018 76.768 341.629 76.768C339.453 76.768 337.554 76.4693 335.933 75.872C334.354 75.232 333.202 74.6347 332.477 74.08V87.84Z" fill="#FAB2D7"/>
<path d="M372.413 73.056C374.802 73.056 376.765 72.672 378.301 71.904C379.88 71.0933 380.669 69.7493 380.669 67.872C380.669 66.976 380.52 66.208 380.221 65.568C379.965 64.928 379.517 64.352 378.877 63.84C378.237 63.328 377.384 62.8373 376.317 62.368C375.293 61.8987 374.013 61.344 372.477 60.704C371.24 60.192 370.066 59.68 368.957 59.168C367.848 58.6133 366.866 57.9947 366.013 57.312C365.16 56.5867 364.477 55.7333 363.965 54.752C363.453 53.7707 363.197 52.576 363.197 51.168C363.197 48.48 364.2 46.304 366.205 44.64C368.253 42.976 371.048 42.144 374.589 42.144C376.85 42.144 378.706 42.336 380.157 42.72C381.65 43.104 382.696 43.4453 383.293 43.744L382.333 47.456C381.821 47.2 380.946 46.8587 379.709 46.432C378.514 46.0053 376.744 45.792 374.397 45.792C373.458 45.792 372.562 45.8987 371.709 46.112C370.898 46.2827 370.173 46.5813 369.533 47.008C368.893 47.392 368.381 47.904 367.997 48.544C367.613 49.1413 367.421 49.888 367.421 50.784C367.421 51.68 367.592 52.448 367.933 53.088C368.274 53.728 368.765 54.304 369.405 54.816C370.088 55.2853 370.898 55.7333 371.837 56.16C372.818 56.5867 373.928 57.056 375.165 57.568C376.445 58.08 377.661 58.6133 378.813 59.168C380.008 59.68 381.053 60.32 381.949 61.088C382.845 61.8133 383.57 62.7093 384.125 63.776C384.68 64.8 384.957 66.1013 384.957 67.68C384.957 70.6667 383.826 72.928 381.565 74.464C379.346 76 376.296 76.768 372.413 76.768C369.512 76.768 367.293 76.512 365.757 76C364.221 75.5307 363.197 75.168 362.685 74.912L363.773 71.136C363.901 71.2213 364.178 71.3707 364.605 71.584C365.032 71.7547 365.608 71.968 366.333 72.224C367.058 72.4373 367.912 72.6293 368.893 72.8C369.917 72.9707 371.09 73.056 372.413 73.056Z" fill="#FAB2D7"/>
<path d="M398.892 73.248C398.892 74.2293 398.572 75.0613 397.932 75.744C397.335 76.4267 396.481 76.768 395.372 76.768C394.263 76.768 393.388 76.4267 392.748 75.744C392.151 75.0613 391.852 74.2293 391.852 73.248C391.852 72.2667 392.151 71.4347 392.748 70.752C393.388 70.0693 394.263 69.728 395.372 69.728C396.481 69.728 397.335 70.0693 397.932 70.752C398.572 71.4347 398.892 72.2667 398.892 73.248Z" fill="#FAB2D7"/>
<path d="M414.642 73.248C414.642 74.2293 414.322 75.0613 413.682 75.744C413.085 76.4267 412.231 76.768 411.122 76.768C410.013 76.768 409.138 76.4267 408.498 75.744C407.901 75.0613 407.602 74.2293 407.602 73.248C407.602 72.2667 407.901 71.4347 408.498 70.752C409.138 70.0693 410.013 69.728 411.122 69.728C412.231 69.728 413.085 70.0693 413.682 70.752C414.322 71.4347 414.642 72.2667 414.642 73.248Z" fill="#FAB2D7"/>
<path d="M430.392 73.248C430.392 74.2293 430.072 75.0613 429.432 75.744C428.835 76.4267 427.981 76.768 426.872 76.768C425.763 76.768 424.888 76.4267 424.248 75.744C423.651 75.0613 423.352 74.2293 423.352 73.248C423.352 72.2667 423.651 71.4347 424.248 70.752C424.888 70.0693 425.763 69.728 426.872 69.728C427.981 69.728 428.835 70.0693 429.432 70.752C430.072 71.4347 430.392 72.2667 430.392 73.248Z" fill="#FAB2D7"/>
</g>
<defs>
<filter id="filter0_d" x="0.25" y="0.687988" width="489.18" height="338.062" filterUnits="userSpaceOnUse" color-interpolation-filters="sRGB">
<feFlood flood-opacity="0" result="BackgroundImageFix"/>
<feColorMatrix in="SourceAlpha" type="matrix" values="0 0 0 0 0 0 0 0 0 0 0 0 0 0 0 0 0 0 127 0"/>
<feOffset dy="10"/>
<feGaussianBlur stdDeviation="20"/>
<feColorMatrix type="matrix" values="0 0 0 0 0 0 0 0 0 0 0 0 0 0 0 0 0 0 0.15 0"/>
<feBlend mode="normal" in2="BackgroundImageFix" result="effect1_dropShadow"/>
<feBlend mode="normal" in="SourceGraphic" in2="effect1_dropShadow" result="shape"/>
</filter>
</defs>
</svg>
