<svg width="168" height="48" viewBox="0 0 168 48" fill="none" xmlns="http://www.w3.org/2000/svg">
<path d="M6.416 28.4C6.30933 28.1333 6.15467 27.7813 5.952 27.344C5.76 26.9067 5.54133 26.432 5.296 25.92C5.05067 25.3973 4.8 24.864 4.544 24.32C4.288 23.7653 4.04267 23.248 3.808 22.768C3.57333 22.288 3.36533 21.8667 3.184 21.504C3.00267 21.1413 2.86933 20.8853 2.784 20.736C2.64533 22.0693 2.53333 23.52 2.448 25.088C2.37333 26.6453 2.304 28.2827 2.24 30H1.168C1.264 27.984 1.37067 26.0533 1.488 24.208C1.616 22.3627 1.77067 20.5973 1.952 18.912H2.912C3.232 19.4453 3.57333 20.064 3.936 20.768C4.29867 21.4613 4.656 22.1867 5.008 22.944C5.37067 23.6907 5.71733 24.432 6.048 25.168C6.38933 25.8933 6.688 26.5493 6.944 27.136C7.2 26.5493 7.49333 25.8933 7.824 25.168C8.16533 24.432 8.512 23.6907 8.864 22.944C9.22667 22.1867 9.58933 21.4613 9.952 20.768C10.3147 20.064 10.656 19.4453 10.976 18.912H11.888C12.0693 20.5973 12.2187 22.3627 12.336 24.208C12.464 26.0533 12.576 27.984 12.672 30H11.568C11.504 28.2827 11.4293 26.6453 11.344 25.088C11.2693 23.52 11.1627 22.0693 11.024 20.736C10.9387 20.8853 10.8053 21.1413 10.624 21.504C10.4427 21.8667 10.2347 22.288 10 22.768C9.76533 23.248 9.52 23.7653 9.264 24.32C9.008 24.864 8.75733 25.3973 8.512 25.92C8.26667 26.432 8.04267 26.9067 7.84 27.344C7.648 27.7813 7.49867 28.1333 7.392 28.4H6.416ZM17.8278 29.248C18.2331 29.248 18.5851 29.2373 18.8838 29.216C19.1931 29.184 19.4544 29.1467 19.6678 29.104V26.192C19.5504 26.1387 19.3638 26.0853 19.1078 26.032C18.8518 25.968 18.4998 25.936 18.0518 25.936C17.7958 25.936 17.5291 25.9573 17.2518 26C16.9744 26.032 16.7184 26.112 16.4838 26.24C16.2491 26.3573 16.0571 26.5227 15.9078 26.736C15.7584 26.9493 15.6838 27.232 15.6838 27.584C15.6838 27.8933 15.7318 28.1547 15.8278 28.368C15.9344 28.5813 16.0784 28.752 16.2598 28.88C16.4518 29.008 16.6758 29.104 16.9318 29.168C17.1984 29.2213 17.4971 29.248 17.8278 29.248ZM17.7318 21.536C18.2758 21.536 18.7344 21.616 19.1078 21.776C19.4918 21.9253 19.8011 22.1387 20.0358 22.416C20.2704 22.6827 20.4411 23.0027 20.5478 23.376C20.6544 23.7493 20.7078 24.1547 20.7078 24.592V29.808C20.6011 29.84 20.4464 29.8773 20.2438 29.92C20.0411 29.952 19.8064 29.9893 19.5398 30.032C19.2731 30.0747 18.9744 30.1067 18.6438 30.128C18.3238 30.16 17.9931 30.176 17.6518 30.176C17.2144 30.176 16.8091 30.128 16.4358 30.032C16.0731 29.936 15.7531 29.7867 15.4758 29.584C15.2091 29.3707 14.9958 29.104 14.8358 28.784C14.6864 28.4533 14.6118 28.0533 14.6118 27.584C14.6118 27.136 14.6971 26.752 14.8678 26.432C15.0384 26.112 15.2784 25.8507 15.5878 25.648C15.8971 25.4347 16.2651 25.28 16.6918 25.184C17.1184 25.088 17.5824 25.04 18.0838 25.04C18.2331 25.04 18.3878 25.0507 18.5477 25.072C18.7184 25.0827 18.8784 25.104 19.0278 25.136C19.1878 25.1573 19.3211 25.184 19.4278 25.216C19.5451 25.2373 19.6251 25.2587 19.6678 25.28V24.768C19.6678 24.48 19.6464 24.2027 19.6038 23.936C19.5611 23.6587 19.4651 23.4133 19.3158 23.2C19.1771 22.976 18.9744 22.8 18.7078 22.672C18.4518 22.5333 18.1104 22.464 17.6838 22.464C17.0758 22.464 16.6224 22.5067 16.3238 22.592C16.0251 22.6773 15.8064 22.7467 15.6678 22.8L15.5238 21.888C15.7051 21.8027 15.9824 21.7227 16.3558 21.648C16.7398 21.5733 17.1984 21.536 17.7318 21.536ZM29.9364 29.744C29.627 29.8507 29.2324 29.952 28.7524 30.048C28.2724 30.144 27.6644 30.192 26.9284 30.192C26.3204 30.192 25.7657 30.096 25.2644 29.904C24.7737 29.7013 24.347 29.4133 23.9844 29.04C23.6324 28.6667 23.355 28.2133 23.1524 27.68C22.9604 27.1467 22.8644 26.544 22.8644 25.872C22.8644 25.2427 22.9444 24.6667 23.1044 24.144C23.275 23.6107 23.5204 23.152 23.8404 22.768C24.1604 22.384 24.5497 22.0853 25.0084 21.872C25.4777 21.6587 26.011 21.552 26.6084 21.552C27.1524 21.552 27.6217 21.632 28.0164 21.792C28.4217 21.9413 28.715 22.0853 28.8964 22.224V17.776L29.9364 17.584V29.744ZM28.8964 23.232C28.8004 23.1573 28.6777 23.0773 28.5284 22.992C28.3897 22.9067 28.2244 22.8267 28.0324 22.752C27.8404 22.6773 27.6324 22.6187 27.4084 22.576C27.1844 22.5227 26.9497 22.496 26.7044 22.496C26.1924 22.496 25.7604 22.5867 25.4084 22.768C25.067 22.9493 24.7897 23.1947 24.5764 23.504C24.363 23.8027 24.2084 24.16 24.1124 24.576C24.0164 24.9813 23.9684 25.4133 23.9684 25.872C23.9684 26.96 24.2404 27.7973 24.7844 28.384C25.3284 28.96 26.0484 29.248 26.9444 29.248C27.4564 29.248 27.867 29.2267 28.1764 29.184C28.4964 29.1307 28.7364 29.0773 28.8964 29.024V23.232ZM32.1925 25.856C32.1925 25.1307 32.2938 24.5013 32.4965 23.968C32.7098 23.424 32.9818 22.9707 33.3125 22.608C33.6538 22.2453 34.0378 21.9787 34.4645 21.808C34.9018 21.6267 35.3498 21.536 35.8085 21.536C36.8218 21.536 37.6272 21.8667 38.2245 22.528C38.8325 23.1893 39.1365 24.208 39.1365 25.584C39.1365 25.6693 39.1312 25.7547 39.1205 25.84C39.1205 25.9253 39.1152 26.0053 39.1045 26.08H33.2965C33.3285 27.0933 33.5792 27.872 34.0485 28.416C34.5178 28.96 35.2645 29.232 36.2885 29.232C36.8538 29.232 37.3018 29.1787 37.6325 29.072C37.9632 28.9653 38.2032 28.8747 38.3525 28.8L38.5445 29.696C38.3952 29.7813 38.1125 29.8827 37.6965 30C37.2912 30.1173 36.8112 30.176 36.2565 30.176C35.5312 30.176 34.9125 30.0693 34.4005 29.856C33.8885 29.6427 33.4672 29.344 33.1365 28.96C32.8058 28.576 32.5658 28.1227 32.4165 27.6C32.2672 27.0667 32.1925 26.4853 32.1925 25.856ZM38.0645 25.2C38.0432 24.336 37.8405 23.664 37.4565 23.184C37.0725 22.704 36.5285 22.464 35.8245 22.464C35.4512 22.464 35.1152 22.5387 34.8165 22.688C34.5285 22.8373 34.2725 23.04 34.0485 23.296C33.8352 23.5413 33.6645 23.8293 33.5365 24.16C33.4192 24.4907 33.3498 24.8373 33.3285 25.2H38.0645ZM50.4228 21.728C50.5188 22.2613 50.6414 22.832 50.7908 23.44C50.9508 24.0373 51.1214 24.6507 51.3028 25.28C51.4948 25.8987 51.6921 26.512 51.8948 27.12C52.1081 27.728 52.3214 28.2987 52.5347 28.832C52.7161 28.4267 52.9081 27.936 53.1108 27.36C53.3134 26.7733 53.5161 26.16 53.7188 25.52C53.9214 24.8693 54.1081 24.2187 54.2788 23.568C54.4601 22.9067 54.6094 22.2933 54.7268 21.728H55.7508C55.3668 23.3493 54.9454 24.832 54.4868 26.176C54.0388 27.52 53.5428 28.7947 52.9988 30H52.0228C51.8628 29.6267 51.6921 29.2107 51.5108 28.752C51.3401 28.2827 51.1588 27.7867 50.9668 27.264C50.7854 26.7307 50.6041 26.176 50.4228 25.6C50.2521 25.0133 50.0868 24.416 49.9268 23.808C49.7668 24.416 49.5961 25.0133 49.4148 25.6C49.2441 26.176 49.0628 26.7307 48.8708 27.264C48.6894 27.7867 48.5081 28.2827 48.3268 28.752C48.1561 29.2107 47.9908 29.6267 47.8307 30H46.8388C46.2948 28.7947 45.7934 27.52 45.3348 26.176C44.8868 24.832 44.4708 23.3493 44.0868 21.728H45.1908C45.3081 22.2933 45.4521 22.9067 45.6228 23.568C45.8041 24.2187 45.9961 24.8693 46.1988 25.52C46.4014 26.16 46.6041 26.768 46.8068 27.344C47.0201 27.92 47.2174 28.4107 47.3988 28.816C47.6014 28.2827 47.8041 27.712 48.0068 27.104C48.2201 26.496 48.4174 25.8827 48.5988 25.264C48.7801 24.6453 48.9508 24.0373 49.1108 23.44C49.2708 22.832 49.4094 22.2613 49.5268 21.728H50.4228ZM58.541 30H57.501V21.728H58.541V30ZM58.781 19.232C58.781 19.4773 58.7063 19.6747 58.557 19.824C58.4077 19.9627 58.2263 20.032 58.013 20.032C57.7997 20.032 57.6183 19.9627 57.469 19.824C57.3197 19.6747 57.245 19.4773 57.245 19.232C57.245 18.9867 57.3197 18.7947 57.469 18.656C57.6183 18.5067 57.7997 18.432 58.013 18.432C58.2263 18.432 58.4077 18.5067 58.557 18.656C58.7063 18.7947 58.781 18.9867 58.781 19.232ZM67.8739 29.744C67.5645 29.8507 67.1699 29.952 66.6899 30.048C66.2099 30.144 65.6019 30.192 64.8659 30.192C64.2579 30.192 63.7032 30.096 63.2019 29.904C62.7112 29.7013 62.2845 29.4133 61.9219 29.04C61.5699 28.6667 61.2925 28.2133 61.0899 27.68C60.8979 27.1467 60.8019 26.544 60.8019 25.872C60.8019 25.2427 60.8819 24.6667 61.0419 24.144C61.2125 23.6107 61.4579 23.152 61.7779 22.768C62.0979 22.384 62.4872 22.0853 62.9459 21.872C63.4152 21.6587 63.9485 21.552 64.5459 21.552C65.0899 21.552 65.5592 21.632 65.9539 21.792C66.3592 21.9413 66.6525 22.0853 66.8339 22.224V17.776L67.8739 17.584V29.744ZM66.8339 23.232C66.7379 23.1573 66.6152 23.0773 66.4659 22.992C66.3272 22.9067 66.1619 22.8267 65.9699 22.752C65.7779 22.6773 65.5699 22.6187 65.3459 22.576C65.1219 22.5227 64.8872 22.496 64.6419 22.496C64.1299 22.496 63.6979 22.5867 63.3459 22.768C63.0045 22.9493 62.7272 23.1947 62.5139 23.504C62.3005 23.8027 62.1459 24.16 62.0499 24.576C61.9539 24.9813 61.9059 25.4133 61.9059 25.872C61.9059 26.96 62.1779 27.7973 62.7219 28.384C63.2659 28.96 63.9859 29.248 64.8819 29.248C65.3939 29.248 65.8045 29.2267 66.1139 29.184C66.4339 29.1307 66.6739 29.0773 66.8339 29.024V23.232ZM71.602 21.728H74.898V22.608H71.602V27.008C71.602 27.4773 71.6393 27.8613 71.714 28.16C71.7993 28.448 71.9167 28.672 72.066 28.832C72.2153 28.992 72.3967 29.0987 72.61 29.152C72.8233 29.2053 73.058 29.232 73.314 29.232C73.7513 29.232 74.1033 29.184 74.37 29.088C74.6367 28.9813 74.8447 28.8853 74.994 28.8L75.25 29.664C75.1007 29.76 74.8393 29.872 74.466 30C74.0927 30.1173 73.6873 30.176 73.25 30.176C72.738 30.176 72.306 30.112 71.954 29.984C71.6127 29.8453 71.3353 29.6427 71.122 29.376C70.9193 29.0987 70.7753 28.7573 70.69 28.352C70.6047 27.9467 70.562 27.4667 70.562 26.912V19.296L71.602 19.104V21.728ZM76.8135 30V17.776L77.8535 17.584V21.968C78.1948 21.84 78.5415 21.744 78.8935 21.68C79.2455 21.6053 79.5975 21.568 79.9495 21.568C80.5895 21.568 81.1228 21.6587 81.5495 21.84C81.9762 22.0213 82.3175 22.2827 82.5735 22.624C82.8295 22.9547 83.0055 23.3547 83.1015 23.824C83.2082 24.2933 83.2615 24.8107 83.2615 25.376V30H82.2215V25.712C82.2215 25.1253 82.1788 24.6293 82.0935 24.224C82.0188 23.8187 81.8855 23.488 81.6935 23.232C81.5122 22.976 81.2668 22.7947 80.9575 22.688C80.6482 22.5707 80.2588 22.512 79.7895 22.512C79.6082 22.512 79.4108 22.528 79.1975 22.56C78.9948 22.592 78.8028 22.6293 78.6215 22.672C78.4402 22.704 78.2748 22.7413 78.1255 22.784C77.9868 22.8267 77.8962 22.8587 77.8535 22.88V30H76.8135Z" fill="white"/>
<path d="M99.3497 32.3072C98.5897 32.9972 97.4197 32.9972 96.6597 32.2972L96.5497 32.1972C91.2997 27.4472 87.8697 24.3372 87.9997 20.4572C88.0597 18.7572 88.9297 17.1272 90.3397 16.1672C92.9797 14.3672 96.2397 15.2072 97.9997 17.2672C99.7597 15.2072 103.02 14.3572 105.66 16.1672C107.07 17.1272 107.94 18.7572 108 20.4572C108.14 24.3372 104.7 27.4472 99.4497 32.2172L99.3497 32.3072Z" fill="#D94E96"/>
<path d="M114.416 30H113.376V21.728H114.416V30ZM114.656 19.232C114.656 19.4773 114.581 19.6747 114.432 19.824C114.283 19.9627 114.101 20.032 113.888 20.032C113.675 20.032 113.493 19.9627 113.344 19.824C113.195 19.6747 113.12 19.4773 113.12 19.232C113.12 18.9867 113.195 18.7947 113.344 18.656C113.493 18.5067 113.675 18.432 113.888 18.432C114.101 18.432 114.283 18.5067 114.432 18.656C114.581 18.7947 114.656 18.9867 114.656 19.232ZM117.173 22.016C117.482 21.9307 117.898 21.8347 118.421 21.728C118.944 21.6213 119.584 21.568 120.341 21.568C120.97 21.568 121.493 21.6587 121.909 21.84C122.336 22.0213 122.672 22.2827 122.917 22.624C123.173 22.9547 123.354 23.3547 123.461 23.824C123.568 24.2933 123.621 24.8107 123.621 25.376V30H122.581V25.712C122.581 25.1253 122.538 24.6293 122.453 24.224C122.378 23.8187 122.245 23.488 122.053 23.232C121.872 22.976 121.626 22.7947 121.317 22.688C121.018 22.5707 120.64 22.512 120.181 22.512C119.69 22.512 119.264 22.5387 118.901 22.592C118.549 22.6453 118.32 22.6933 118.213 22.736V30H117.173V22.016ZM132.643 30.096C132.462 30.096 132.248 30.0853 132.003 30.064C131.768 30.0533 131.523 30.032 131.267 30C131.022 29.9787 130.787 29.952 130.563 29.92C130.339 29.8773 130.147 29.8347 129.987 29.792V19.12C130.179 19.0667 130.392 19.024 130.627 18.992C130.862 18.9493 131.102 18.9173 131.347 18.896C131.603 18.864 131.848 18.8427 132.083 18.832C132.328 18.8213 132.552 18.816 132.755 18.816C133.352 18.816 133.918 18.864 134.451 18.96C134.995 19.056 135.47 19.216 135.875 19.44C136.28 19.664 136.6 19.9627 136.835 20.336C137.08 20.6987 137.203 21.152 137.203 21.696C137.203 22.2933 137.048 22.8053 136.739 23.232C136.44 23.648 136.035 23.936 135.523 24.096C135.843 24.1707 136.136 24.2773 136.403 24.416C136.67 24.5547 136.904 24.736 137.107 24.96C137.31 25.1733 137.464 25.44 137.571 25.76C137.688 26.0693 137.747 26.4427 137.747 26.88C137.747 27.9253 137.331 28.7253 136.499 29.28C135.667 29.824 134.382 30.096 132.643 30.096ZM131.075 24.688V29.056C131.235 29.0773 131.475 29.104 131.795 29.136C132.115 29.1573 132.44 29.168 132.771 29.168C133.262 29.168 133.736 29.136 134.195 29.072C134.664 29.008 135.075 28.8907 135.427 28.72C135.779 28.5493 136.062 28.3147 136.275 28.016C136.488 27.7173 136.595 27.3333 136.595 26.864C136.595 26.4373 136.52 26.0853 136.371 25.808C136.222 25.52 136.008 25.296 135.731 25.136C135.454 24.9653 135.112 24.848 134.707 24.784C134.312 24.72 133.87 24.688 133.379 24.688H131.075ZM131.075 23.76H133.187C133.582 23.76 133.955 23.7333 134.307 23.68C134.659 23.616 134.963 23.5093 135.219 23.36C135.486 23.2 135.694 22.992 135.843 22.736C135.992 22.4693 136.067 22.1333 136.067 21.728C136.067 21.3653 135.987 21.0613 135.827 20.816C135.667 20.56 135.438 20.352 135.139 20.192C134.851 20.032 134.504 19.92 134.099 19.856C133.694 19.7813 133.246 19.744 132.755 19.744C132.36 19.744 132.024 19.7547 131.747 19.776C131.48 19.7973 131.256 19.824 131.075 19.856V23.76ZM142.817 21.568C143.158 21.568 143.478 21.5947 143.777 21.648C144.086 21.7013 144.3 21.7547 144.417 21.808L144.209 22.704C144.124 22.6613 143.948 22.6187 143.681 22.576C143.425 22.5227 143.084 22.496 142.657 22.496C142.209 22.496 141.846 22.528 141.569 22.592C141.302 22.656 141.126 22.7093 141.041 22.752V30H140.001V22.112C140.268 21.9947 140.636 21.8773 141.105 21.76C141.574 21.632 142.145 21.568 142.817 21.568ZM148.593 29.248C148.999 29.248 149.351 29.2373 149.649 29.216C149.959 29.184 150.22 29.1467 150.433 29.104V26.192C150.316 26.1387 150.129 26.0853 149.873 26.032C149.617 25.968 149.265 25.936 148.817 25.936C148.561 25.936 148.295 25.9573 148.017 26C147.74 26.032 147.484 26.112 147.249 26.24C147.015 26.3573 146.823 26.5227 146.673 26.736C146.524 26.9493 146.449 27.232 146.449 27.584C146.449 27.8933 146.497 28.1547 146.593 28.368C146.7 28.5813 146.844 28.752 147.025 28.88C147.217 29.008 147.441 29.104 147.697 29.168C147.964 29.2213 148.263 29.248 148.593 29.248ZM148.497 21.536C149.041 21.536 149.5 21.616 149.873 21.776C150.257 21.9253 150.567 22.1387 150.801 22.416C151.036 22.6827 151.207 23.0027 151.313 23.376C151.42 23.7493 151.473 24.1547 151.473 24.592V29.808C151.367 29.84 151.212 29.8773 151.009 29.92C150.807 29.952 150.572 29.9893 150.305 30.032C150.039 30.0747 149.74 30.1067 149.409 30.128C149.089 30.16 148.759 30.176 148.417 30.176C147.98 30.176 147.575 30.128 147.201 30.032C146.839 29.936 146.519 29.7867 146.241 29.584C145.975 29.3707 145.761 29.104 145.601 28.784C145.452 28.4533 145.377 28.0533 145.377 27.584C145.377 27.136 145.463 26.752 145.633 26.432C145.804 26.112 146.044 25.8507 146.353 25.648C146.663 25.4347 147.031 25.28 147.457 25.184C147.884 25.088 148.348 25.04 148.849 25.04C148.999 25.04 149.153 25.0507 149.313 25.072C149.484 25.0827 149.644 25.104 149.793 25.136C149.953 25.1573 150.087 25.184 150.193 25.216C150.311 25.2373 150.391 25.2587 150.433 25.28V24.768C150.433 24.48 150.412 24.2027 150.369 23.936C150.327 23.6587 150.231 23.4133 150.081 23.2C149.943 22.976 149.74 22.8 149.473 22.672C149.217 22.5333 148.876 22.464 148.449 22.464C147.841 22.464 147.388 22.5067 147.089 22.592C146.791 22.6773 146.572 22.7467 146.433 22.8L146.289 21.888C146.471 21.8027 146.748 21.7227 147.121 21.648C147.505 21.5733 147.964 21.536 148.497 21.536ZM159.262 22.576C159.017 22.8533 158.697 23.2373 158.302 23.728C157.907 24.2187 157.486 24.768 157.038 25.376C156.59 25.9733 156.147 26.6027 155.71 27.264C155.273 27.9147 154.889 28.5333 154.558 29.12H159.406V30H153.358V29.248C153.635 28.7253 153.977 28.1493 154.382 27.52C154.798 26.8907 155.225 26.272 155.662 25.664C156.099 25.0453 156.526 24.4693 156.942 23.936C157.358 23.392 157.71 22.9493 157.998 22.608H153.598V21.728H159.262V22.576ZM162.447 30H161.407V21.728H162.447V30ZM162.687 19.232C162.687 19.4773 162.613 19.6747 162.463 19.824C162.314 19.9627 162.133 20.032 161.919 20.032C161.706 20.032 161.525 19.9627 161.375 19.824C161.226 19.6747 161.151 19.4773 161.151 19.232C161.151 18.9867 161.226 18.7947 161.375 18.656C161.525 18.5067 161.706 18.432 161.919 18.432C162.133 18.432 162.314 18.5067 162.463 18.656C162.613 18.7947 162.687 18.9867 162.687 19.232ZM167.3 30.144C166.948 30.1333 166.639 30.0853 166.372 30C166.116 29.9253 165.897 29.808 165.716 29.648C165.545 29.4773 165.412 29.264 165.316 29.008C165.231 28.7413 165.188 28.4107 165.188 28.016V17.776L166.228 17.584V27.984C166.228 28.24 166.249 28.448 166.292 28.608C166.345 28.7573 166.42 28.88 166.516 28.976C166.612 29.0613 166.735 29.1253 166.884 29.168C167.044 29.2107 167.231 29.248 167.444 29.28L167.3 30.144Z" fill="white"/>
</svg>
